<?xml version="1.0" encoding="UTF-8"?>
<svg id="Layer_1" data-name="Layer 1" xmlns="http://www.w3.org/2000/svg" width="24" height="24" viewBox="0 0 24 24">
  <path d="M21.74,19.27l-.57.57c-.06.06-.17.06-.23,0l-2.03-2.03c-.06-.06-.44-.48-.49-.55-.06-.06-.21-.24.04-.4.54-.34.66-.4.66-.4.08-.05.21-.09.3-.09h2.28c.09,0,.16.07.16.16v2.44c0,.09-.05.21-.12.28ZM21.69,15.35h-2.25c-.09,0-.16-.07-.16-.16v-1.55c0-.09.07-.16.16-.16h2.25c.09,0,.16.07.16.16v1.55c0,.09-.07.16-.16.16ZM21.69,12.45h-2.25c-.09,0-.16-.07-.16-.16v-1.59c0-.09.07-.16.16-.16h2.25c.09,0,.16.07.16.16v1.59c0,.09-.07.16-.16.16ZM21.69,9.5h-2.25c-.09,0-.16-.07-.16-.16v-2.41c0-.09.07-.16.16-.16h.84c.09,0,.21.05.28.12l1.18,1.18c.06.06.12.19.12.28v.99c0,.09-.07.16-.16.16ZM18.14,14.28h-2.16c-.09,0-.16-.07-.16-.16v-7.19c0-.09.07-.16.16-.16h2.16c.09,0,.16.07.16.16v7.19c0,.09-.07.16-.16.16ZM17.43,17.88c.09.13.48.5.55.57l1.65,1.71c.06.06.04.12-.05.12h-6.86c-.09,0-.16-.07-.16-.16v-1.07c0-.09.07-.16.16-.16h2.39c.09,0,.22-.04.3-.09,0,0,.48-.33,1.44-.93.28-.17.47-.1.57.03ZM14.62,14.28h-1.82c-.09,0-.16-.07-.16-.16v-7.19c0-.09.07-.16.16-.16h1.82c.09,0,.16.07.16.16v7.19c0,.09-.07.16-.16.16ZM14.61,1.98h-2.6c-.09,0-.16.07-.16.16v.54c0,.09.07.16.16.16h1.81c.09,0,.16.07.16.16v.69c0,.09-.07.16-.16.16h-1.81c-.09,0-.16.07-.16.16v1.15c0,.09-.07.16-.16.16h-1.02c-.09,0-.16-.07-.16-.16V1.15c0-.09.07-.16.16-.16h3.95c.09,0,.16.07.16.16v.67c0,.09-.07.16-.16.16ZM11.61,6.93v7.19c0,.09-.07.16-.16.16h-1.22c-.09,0-.17,0-.17,0,0,0,0-.08,0-.17v-7.17c0-.09.07-.16.16-.16h1.24c.09,0,.16.07.16.16ZM11,15.38l.51.51c.06.06.12.19.12.28v1.74c0,.09-.07.16-.16.16h-1.34c-.09,0-.21-.05-.28-.12l-.77-.78c-.06-.06-.17-.06-.23,0l-.73.74c-.06.06-.17.06-.23,0l-.75-.75c-.06-.06-.17-.06-.23,0l-.78.78c-.06.06-.19.11-.28.11h-1.17c-.09,0-.16.07-.16.16v.55c0,.09.07.16.16.16h1.47c.09,0,.21-.05.28-.12l.42-.42c.06-.06.17-.06.23,0l.39.41c.06.07.18.12.27.12h.52c.09,0,.21-.05.28-.12l.42-.42c.06-.06.17-.06.23,0l.45.43c.07.06.19.11.28.11h1.49c.09,0,.16.07.16.16v.97c0,.09-.07.16-.16.16H3.2c-.09,0-.21-.05-.28-.12l-1.3-1.3c-.06-.06-.12-.19-.12-.28v-3.39c0-.09.05-.21.11-.28l1.59-1.61c.06-.06.19-.12.28-.12h3.99c.09,0,.21.05.28.12l1.87,1.87c.06.06.19.11.28.11h.81c.09,0,.21.05.28.12ZM5.14,15.11c0-.09-.07-.16-.16-.16h-1.61c-.09,0-.16.07-.16.16v1.61c0,.09.07.16.16.16h1.61c.09,0,.16-.07.16-.16v-1.61ZM9.11,9.52h-.98c-.09,0-.16-.07-.16-.16v-.72c0-.09-.04-.22-.09-.3l-1-1.43c-.05-.07-.02-.13.07-.13h2.16c.09,0,.16.07.16.16v2.42c0,.09-.07.16-.16.16ZM8.96,1.98h-2.6c-.09,0-.16.07-.16.16v.54c0,.09.07.16.16.16h1.81c.09,0,.16.07.16.16v.69c0,.09-.07.16-.16.16h-1.81c-.09,0-.16.07-.16.16v1.15c0,.09-.07.16-.16.16h-1.02c-.09,0-.16-.07-.16-.16V1.15c0-.09.07-.16.16-.16h3.95c.09,0,.16.07.16.16v.67c0,.09-.07.16-.16.16ZM2.64,10.59h4.1c.09,0,.16.07.16.16v1.34c0,.09-.07.16-.16.16h-3.7c-.09,0-.22.05-.29.1l-.15.12c-.07.06-.13.03-.13-.06v-1.66c0-.09.07-.16.16-.16ZM5.62,6.9l1.18,1.7c.05.07.09.21.09.3v.46c0,.09-.07.16-.16.16H2.64c-.09,0-.16-.07-.16-.16v-.92c0-.09.05-.21.12-.28l1.27-1.27c.06-.06.19-.12.28-.12h1.23c.09,0,.2.06.26.13ZM2.69,21.55c0-.09.07-.16.16-.16h1.34c.09,0,.16.07.16.16v1.64s0,.05.02.07h-1.69s.02-.04.02-.07v-1.64ZM6.05,21.55c0-.09.07-.16.16-.16h1.34c.09,0,.16.07.16.16v1.64s0,.05.02.07h-1.69s.02-.04.02-.07v-1.64ZM9.41,21.55c0-.09.07-.16.16-.16h1.34c.09,0,.16.07.16.16v1.64s0,.05.02.07h-1.69s.02-.04.02-.07v-1.64ZM12.77,21.55c0-.09.07-.16.16-.16h1.34c.09,0,.16.07.16.16v1.64s0,.05.02.07h-1.69s.02-.04.02-.07v-1.64ZM16.13,21.55c0-.09.07-.16.16-.16h1.34c.09,0,.16.07.16.16v1.64s0,.05.02.07h-1.69s.02-.04.02-.07v-1.64ZM19.49,21.55c0-.09.07-.16.16-.16h1.34c.09,0,.16.07.16.16v1.64s0,.05.02.07h-1.69s.02-.04.02-.07v-1.64Z" style="fill: #36844D; fill-rule: evenodd;"/>
</svg>