<?xml version="1.0" encoding="UTF-8"?>
<svg id="Layer_1" data-name="Layer 1" xmlns="http://www.w3.org/2000/svg" width="25" height="24" viewBox="0 0 25 24">
  <path d="M22.56,20.65v-4.29l2.26,2.03v.23l-2.26,2.03ZM22.56,9.58l2.26,2.03v.23l-2.26,2.03v-4.29ZM22.56,3l2.26,1.83v.23l-2.26,2.03V3ZM19.18,20.2H2.01c-.23,0-1.13-1.23-1.13-1.81v-1.36h1.81v1.13c0,.47.32.45.45.45.54,0,2.5,0,2.49,0,.39,0,.45.02.45-.45v-1.36h2.49v1.36c0,.23.39.45.45.45h2.26c.45,0,.9-.1.9-.9v-4.29c0-.32-.17-1.13-.9-1.13h-2.49c-.45,0-.68.5-.68.68v1.36h-2.03v-1.13c0-.14.05-.68-.68-.68h-2.26c-.44,0-.9.5-.9.68v.9H.18v-4.07c0-.44.26-.9.7-.9h4.74c.81,0,1.13-.45,1.13-1.13v-2.71c0-1.13.69-1.58,1.36-1.58h10.17c1.41,0,2.03,1.22,2.03,2.03v7.68h-5.65c-.28,0-1.13.59-1.13,1.13v2.49c0,.82.53,1.13,1.13,1.13h2.71c1.2,0,1.13-.12,1.13-.9v-1.13c0-.28.07-.68-.68-.68h-1.81c-.38,0-.68.27-.68.45,0,.59.3.68.68.68.78,0,.68.27.68-.23,0-.09.9-.05.9,0,0,.46.33.9-.23.9h-2.26c-.22,0-.68.14-.68-.45v-1.81c0-.12.27-.68.68-.68h5.2v4.29c0,1.07.24,1.58-1.13,1.58ZM17.51,10.48c.16,0,.31-.17.31-.36v-2.49c0-.19-.15-.77-.31-.77h-3.94c-.16,0-.72.58-.72.77v2.49c0,.19.56.36.72.36h3.94ZM13.98,7.77h2.71c.33,0,.23.3.23.23v1.36c0,.33.1.23-.23.23h-2.71c.08,0-.23.1-.23-.23v-1.36c0,.08.3-.23.23-.23Z" style="fill: #CB7633; fill-rule: evenodd;"/>
</svg>