<?xml version="1.0" encoding="UTF-8"?>
<svg id="Layer_1" data-name="Layer 1" xmlns="http://www.w3.org/2000/svg" width="25" height="24" viewBox="0 0 25 24">
  <path d="M21.15,14.19H3.55c-.88,0-1.16-.57-.63-1.27l1.73-2.3s.02.02.03.04l2,2.17c.12.13.31.13.43,0l2-2.17c.12-.13.07-.23-.1-.23h-4.21l2.09-2.78,1.26,1.37c.12.13.31.13.43,0l1.44-1.56c.12-.13.07-.23-.1-.23h-2.71l2.02-2.67,1.08,1.18c.12.13.31.13.43,0l1.21-1.31c.12-.13.07-.23-.1-.23h-2.34l1.88-2.5c.53-.7,1.39-.7,1.92,0l1.88,2.5h-2.44c-.18,0-.22.11-.1.23l1.21,1.31c.12.13.31.13.43,0l1.14-1.24,2.06,2.73h-2.84c-.18,0-.22.11-.1.23l1.44,1.56c.12.13.31.13.43,0l1.33-1.45,2.15,2.86s-.01,0-.02,0h-4.23c-.18,0-.22.11-.1.23l2,2.17c.12.13.31.13.43,0l2-2.17s.03-.04.05-.06l1.75,2.33c.53.7.24,1.27-.63,1.27ZM13.83,7.22h-3.1c-.18,0-.22.11-.1.23l1.44,1.56c.12.13.31.13.43,0l1.44-1.56c.12-.13.07-.23-.1-.23ZM14.4,10.42h-4.23c-.18,0-.22.11-.1.23l2,2.17c.12.13.31.13.43,0l2-2.17c.12-.13.07-.23-.1-.23ZM10.18,15.45h4.24c.09,0,.16.07.16.16v2.46c0,.09.05.21.11.27l.09.09c.06.06.18.11.27.11h4.7c.09,0,.21.05.27.11l.45.44c.06.06.11.18.11.27v2.48c0,.09-.05.21-.11.27l-.46.46c-.06.06-.18.11-.27.11h-7.8c-.09,0-.21-.05-.27-.11l-1.55-1.58c-.06-.06-.11-.19-.11-.27v-5.12c0-.09.07-.16.16-.16ZM13.74,20.8l1.17,1.04c.1.09.19.05.19-.08v-2.25c0-.14-.08-.18-.19-.08l-1.17,1.04c-.1.09-.1.24,0,.33Z" style="fill: #B42957; fill-rule: evenodd;"/>
</svg>