<?xml version="1.0" encoding="UTF-8"?>
<svg id="Layer_1" data-name="Layer 1" xmlns="http://www.w3.org/2000/svg" width="25" height="24" viewBox="0 0 25 24">
  <path d="M21.41,22.46l-.7.72c-.07.07-.2.12-.29.12H4.27c-.09,0-.23-.05-.3-.11l-.86-.74c-.07-.06-.13-.19-.13-.28v-3.59c0-.09.03-.24.07-.33l.83-2c.04-.09.12-.21.19-.28l1.7-1.62c.07-.07.19-.15.28-.19l3.22-1.42c.09-.04.16-.15.16-.24v-1.37c0-.09-.05-.23-.11-.31l-2.13-2.7c-.06-.07-.11-.21-.11-.31v-.41c0-.09.08-.17.17-.17h.5c.09,0,.24.04.32.08l1.62.85c.08.04.22.04.3-.01l1.37-.87c.08-.05.16-.17.17-.26l.11-.63c.02-.09.11-.17.2-.17h.83c.09,0,.18.08.2.17l.11.63c.02.09.09.21.17.26l1.37.87c.08.05.21.06.3.01l1.62-.85c.08-.04.23-.08.32-.08h.5c.09,0,.17.08.17.17v.41c0,.09-.05.23-.11.31l-2.13,2.7c-.06.07-.11.21-.11.31v1.37c0,.09.07.2.16.24l3.22,1.42c.09.04.21.12.28.19l1.79,1.72c.07.07.15.19.19.28l.75,1.9c.03.09.06.24.06.33v3.59c0,.09-.05.23-.12.29ZM8.75,20.8l-1.68-2.24c-.06-.08-.15-.08-.21,0l-1.68,2.24c-.06.08-.03.14.07.14h3.43c.09,0,.13-.06.07-.14ZM11.66,11.86c0-.09-.08-.17-.17-.17h-.66c-.09,0-.17.08-.17.17v.8c0,.09.08.17.17.17h.66c.09,0,.17-.08.17-.17v-.8ZM13.83,11.86c0-.09-.08-.17-.17-.17h-.66c-.09,0-.17.08-.17.17v.8c0,.09.08.17.17.17h.66c.09,0,.17-.08.17-.17v-.8ZM14.09,20.8l-1.68-2.24c-.06-.08-.15-.08-.21,0l-1.68,2.24c-.06.08-.03.14.07.14h3.43c.09,0,.12-.06.07-.14ZM19.43,20.8l-1.68-2.24c-.06-.08-.15-.08-.21,0l-1.68,2.24c-.06.08-.03.14.07.14h3.43c.09,0,.12-.06.07-.14ZM13.79,3.27c-.07.07-.2.12-.29.12h-.79c-.09,0-.23-.05-.29-.12l-.06-.06c-.07-.07-.12-.2-.12-.29v-.34c0-.09.08-.17.17-.17h.61c.09,0,.23-.05.3-.12l.05-.05c.07-.06.12-.19.12-.29v-.33c0-.09-.05-.23-.12-.29l-.22-.22c-.07-.07-.2-.12-.29-.12h-1.09c-.09,0-.23.05-.29.12l-.42.42c-.07.07-.12.2-.12.29v.85c0,.09.05.23.12.29l1.43,1.43c.07.07.12.2.12.29v.56c0,.09-.08.17-.17.17h-.45c-.09,0-.17-.08-.17-.17v-.04c0-.09-.05-.23-.12-.29l-1.76-1.75c-.07-.07-.12-.2-.12-.29v-1.5c0-.09.05-.23.12-.29l.98-.98c.07-.07.2-.12.29-.12h2.13c.09,0,.22.06.29.13l.79.86c.06.07.12.2.12.3v1.06c0,.09-.05.23-.12.29l-.63.63Z" style="fill: #B95D3D; fill-rule: evenodd;"/>
</svg>