<?xml version="1.0" encoding="UTF-8"?>
<svg id="Layer_1" data-name="Layer 1" xmlns="http://www.w3.org/2000/svg" width="25" height="24" viewBox="0 0 25 24">
  <path d="M22.49,8h-2.19l-.77-5.63h2.1c.06,0,.13.05.14.11l.82,5.4c0,.06-.04.11-.1.11ZM19.51,15.94H5.08c-.07,0-.12-.05-.11-.12l.38-3.34c0-.07.07-.12.14-.12l9.95.11c.07,0,.16.04.2.09l.86,1.01c.04.05.13.1.2.12l2.4.47c.07.01.13.08.15.14l.36,1.51c.02.07-.03.12-.09.12ZM14.29,7.95l.84-5.53c0-.06.07-.12.14-.12h3.33l.54,5.76h-4.74c-.07,0-.11-.05-.1-.12ZM5.1,2.8l-2.64.13-.05-1.76c0-.06.05-.11.11-.11h5.42c.06,0,.11.05.1.11l-.17,1.49-2.76.14ZM7.55,5.41c0,.06-.06.11-.13.11H2.69s-.07-.02-.09-.05c-.04-.02-.06-.06-.07-.1l-.04-1.52v-.07s5.27-.06,5.27-.06l-.2,1.7ZM3.91,17.23h9.84l.64,5.71H3.33c-.07,0-.11-.05-.1-.12l.54-5.47c0-.06.07-.12.14-.12ZM14.8,17.23h0s5.54,0,5.54,0c0,0,0,0,0,0h.73c.07,0,.13.05.14.12l1.03,5.47c0,.06-.04.12-.1.12h-6.48l-.85-5.71Z" style="fill: #888888; fill-rule: evenodd;"/>
</svg>