<?xml version="1.0" encoding="UTF-8"?>
<svg id="Layer_1" xmlns="http://www.w3.org/2000/svg" width=".3in" height=".3in" version="1.1" viewBox="0 0 25 24">
  <!-- Generator: Adobe Illustrator 29.8.2, SVG Export Plug-In . SVG Version: 2.1.1 Build 3)  -->
  <path d="M23,22.9h-4c-.1,0-.2,0-.2-.2h0c0-.1,0-.2.1-.3l1.9-1.7c0,0,.2,0,.3,0l1.9,1.7c0,0,.1.2.1.3h0c0,.1,0,.2-.2.2h0ZM21.2,3.3c0,0-.2,0-.3,0l-1.9-1.7c0,0-.1-.2-.1-.3h0c0-.1,0-.2.2-.2h4c.1,0,.2,0,.2.2h0c0,.1,0,.2-.1.3l-1.9,1.7h0ZM17.8,11.1c0,.1,0,.2-.1.3l-1.9,2.9c0,0-.2.2-.2.3l-2.5,1.9c0,0-.2.1-.3.2l-2.3.7c0,0-.2,0-.4,0h-3.4c0,0-.2,0-.3,0l-2.2-1.1c0,0-.2-.1-.3-.2l-1.2-1.4c0,0-.1-.2-.2-.3l-.5-1.6c0,0,0-.2,0-.4v-1.1c0-.1,0-.2,0-.4l.5-1.8c0,0,0,0,0,0l.5,1.8c0,0,0,.2.1.3l.7,1.2c0,0,.2.2.2.3l.9.8c0,0,.2.1.3.2l1.5.5c0,0,.2,0,.3,0h1.8c.1,0,.2,0,.3,0l1.5-.7c0,0,.2-.1.3-.2l1.3-1.1c0,0,.2-.2.2-.3l1-2c0,0,0-.2.1-.3l.4-2.5c0,0,.1-.2.2-.2h4.2c.1,0,.2,0,.1.2l-.8,4.1h0ZM12.6,3.3c0,0-.2,0-.3,0l-1.9-1.7c0,0-.1-.2-.1-.3h0c0-.1,0-.2.2-.2h4c.1,0,.2,0,.2.2h0c0,.1,0,.2-.1.3l-1.9,1.7h0ZM11,7l.4,2.5c0,.1,0,.2.1.3l.4.8c0,0,0,.2,0,.3v.3c-.1,0-.2.2-.3.3l-1.2.9c0,0-.2.1-.3.2l-1.4.6c0,0-.2,0-.3,0l-1.1-1.7c0,0-.1-.2-.1-.3l-.8-4.1c0,0,0-.2.1-.2h4.2c.1,0,.2,0,.2.2h0ZM4.1,3.3c0,0-.2,0-.3,0l-1.9-1.7c0,0-.1-.2-.1-.3h0c0-.1,0-.2.2-.2h4c0,0,.2,0,.2.2h0c0,.1,0,.2-.1.3l-1.9,1.7h0ZM3.8,20.7c0,0,.2,0,.3,0l1.9,1.7c0,0,.1.2.1.3h0c0,.1,0,.2-.2.2H2c-.1,0-.2,0-.2-.2h0c0-.1,0-.2.1-.3l1.9-1.7h0ZM12.4,20.7c0,0,.2,0,.3,0l1.9,1.7c0,0,.1.2.1.3h0c0,.1,0,.2-.2.2h-4c-.1,0-.2,0-.2-.2h0c0-.1,0-.2.1-.3l1.9-1.7h0ZM14.2,17.2c0,0-.1-.1,0-.2l2.4-1.8c0,0,.2-.2.2-.3l.4-.7c0,0,.2-.1.3-.1h.4c.1,0,.2,0,.3,0l1.5-.5c0,0,.2-.1.3-.2l.9-.8c0,0,.2-.2.2-.3l.7-1.2c0,0,.1-.2.1-.3l.5-1.8c0,0,0,0,0,0l.5,1.8c0,0,0,.2,0,.4v1.1c0,.1,0,.2-.1.4l-.5,1.6c0,0-.1.2-.2.3l-1.2,1.4c0,0-.2.2-.3.2l-2.2,1.1c0,0-.2,0-.3,0h-3.4c-.1,0-.2,0-.4,0h-.4c0-.1,0-.1,0-.1Z" fill="#5E7ADD" fill-rule="evenodd"/>
</svg>