<?xml version="1.0" encoding="UTF-8"?>
<svg id="Layer_1" data-name="Layer 1" xmlns="http://www.w3.org/2000/svg" width="25" height="24" viewBox="0 0 25 24">
  <path d="M22.78,19.3l-.91.91c-.06.06-.19.12-.28.12h-8.02c-.09,0-.17-.07-.17-.17v-.82c0-.09.07-.17.17-.17h2.7c.09,0,.23-.04.3-.09l3.76-2.57c.08-.05.14-.17.14-.26v-6.46c0-.09-.07-.17-.17-.17h-.8c-.09,0-.17.07-.17.17v5.97c0,.09-.06.21-.14.26l-2.62,1.82c-.08.05-.21.09-.3.09h-2.72c-.09,0-.17-.07-.17-.17v-1.95c0-.09-.05-.22-.12-.28l-1.13-1.13c-.06-.06-.19-.12-.28-.12h-.76c-.09,0-.22-.05-.28-.12l-1.92-1.92c-.06-.06-.19-.12-.28-.12h-.74c-.09,0-.17-.07-.17-.17v-3.25c0-.09-.07-.17-.17-.17h-.63c-.09,0-.17.07-.17.17v3.25c0,.09-.07.17-.17.17h-.88c-.09,0-.17-.07-.17-.17v-3.21c0-.09-.07-.17-.17-.17h-.68c-.09,0-.17.07-.17.17v3.21c0,.09-.07.17-.17.17h-.67c-.09,0-.22.05-.3.1l-.15.12c-.07.06-.13.03-.13-.06v-4.08c0-.09.05-.22.12-.28l1.3-1.3c.06-.06.19-.12.28-.12h16.51c.09,0,.22.05.28.12l1.21,1.21c.06.06.12.19.12.28v10.89c0,.09-.05.22-.12.28v.02ZM15.49,1.62h-2.66c-.09,0-.17.07-.17.17v.55c0,.09.07.17.17.17h1.85c.09,0,.17.07.17.17v.7c0,.09-.07.17-.17.17h-1.85c-.09,0-.17.07-.17.17v1.17c0,.09-.07.17-.17.17h-1.05c-.09,0-.17-.07-.17-.17V.77c0-.09.07-.17.17-.17h4.04c.09,0,.17.07.17.17v.68c0,.09-.07.17-.17.17h.01ZM9.72,1.62h-2.66c-.09,0-.17.07-.17.17v.55c0,.09.07.17.17.17h1.85c.09,0,.17.07.17.17v.7c0,.09-.07.17-.17.17h-1.85c-.09,0-.17.07-.17.17v1.17c0,.09-.07.17-.17.17h-1.05c-.09,0-.17-.07-.17-.17V.77c0-.09.07-.17.17-.17h4.04c.09,0,.17.07.17.17v.68c0,.09-.07.17-.17.17h0ZM4.13,13.05h4.08c.09,0,.22.05.28.12l1.92,1.92c.06.06.19.12.28.12h.83c.09,0,.22.05.28.12l.53.53c.06.06.12.19.12.28v1.63c0,.09-.07.17-.17.17h-5.21c-.09,0-.23.05-.3.1l-1.32,1.04c-.07.06-.06.1.04.1h6.75c.09,0,.17.07.17.17v.79c0,.09-.07.17-.17.17H3.83c-.09,0-.22-.05-.28-.12l-1.33-1.33c-.06-.06-.12-.19-.12-.28v-3.46c0-.09.05-.22.12-.28l1.63-1.65c.06-.07.19-.12.28-.12v-.02ZM4.03,15.64c0,.09.07.17.17.17h2.56c.09,0,.17-.07.17-.17v-.94c0-.09-.07-.17-.17-.17h-2.56c-.09,0-.17.07-.17.17v.94ZM3.3,21.65c0-.09.07-.16.16-.16h1.37c.09,0,.16.07.16.16v1.68s0,.05.02.07h-1.73s.02-.04.02-.07c0,0,0-1.68,0-1.68ZM6.75,21.65c0-.09.07-.16.16-.16h1.37c.09,0,.16.07.16.16v1.68s0,.05.02.07h-1.73s.02-.04.02-.07v-1.68ZM10.19,21.65c0-.09.07-.16.16-.16h1.37c.09,0,.16.07.16.16v1.68s0,.05.02.07h-1.73s.02-.04.02-.07c0,0,0-1.68,0-1.68ZM13.63,21.65c0-.09.07-.16.16-.16h1.37c.09,0,.16.07.16.16v1.68s0,.05.02.07h-1.73s.02-.04.02-.07c0,0,0-1.68,0-1.68ZM17.07,21.65c0-.09.07-.16.16-.16h1.37c.09,0,.16.07.16.16v1.68s0,.05.02.07h-1.73s.02-.04.02-.07c0,0,0-1.68,0-1.68ZM20.51,21.65c0-.09.07-.16.16-.16h1.37c.09,0,.16.07.16.16v1.68s0,.05.02.07h-1.73s.02-.04.02-.07c0,0,0-1.68,0-1.68Z" style="fill: #5E7ADD; fill-rule: evenodd;"/>
</svg>