<?xml version="1.0" encoding="UTF-8"?>
<svg id="Layer_1" data-name="Layer 1" xmlns="http://www.w3.org/2000/svg" width="25" height="24" viewBox="0 0 25 24">
  <path d="M17.64,7.52l2.62,1.62c.08.05.21.09.31.1l1.62.15c.09,0,.13.08.09.16l-.92,1.69c-.04.08-.14.18-.23.22l-3.06,1.62c-.08.04-.09.12-.01.17l2.62,1.85c.07.05.07.13,0,.18l-4.24,2.54c-.08.05-.09.14-.03.21l2.02,2.25c.06.07.16.07.23.01l.69-.67c.07-.06.19-.12.28-.13h.6c.09-.02.22.02.28.09l.26.26c.06.06.1.19.08.28l-.02.1c-.02.09-.09.21-.16.28l-2.56,2.63c-.12.09-.23-.01-.23-.01,0,0-.46-.39-.52-.46-.07-.08-.07-.15-.07-.15l-.06-.71c0-.14.08-.2.08-.2l.08-.08c.1-.1,0-.22,0-.22h0s-1.43-1.29-1.43-1.29c-.16-.14-.32-.18-.32-.18h-1.3s-.17.03-.3.14l-1.91,2.52c-.08.04-.15,0-.15-.09v-2.41c0-.09-.07-.17-.17-.17h-3.01c-.09,0-.22.05-.28.12l-1.55,1.38s-.06.12,0,.19l.08.08s.07.05.07.21l-.05.7s0,.07-.07.15c-.06.07-.52.46-.52.46,0,0-.12.1-.23.01l-2.54-2.62c-.06-.06-.13-.19-.16-.28l-.02-.1c-.02-.09.01-.21.08-.28l.26-.26c.06-.06.19-.11.28-.1h.63c.09.02.22.08.28.14l.63.66c.07.06.17.06.24,0l1.98-2.03c.06-.07.06-.17,0-.24l-1.61-1.71c-.06-.07-.18-.15-.26-.19l-2.34-1.13c-.08-.04-.1-.13-.03-.19l2.67-2.75c.06-.07.05-.16-.02-.21l-2.87-1.81c-.08-.05-.08-.13,0-.18l3.27-2.33c.07-.05.11-.16.07-.25l-.26-.78c-.04-.08-.14-.15-.23-.15h-1.85c-.09,0-.22-.05-.28-.12l-.03-.03c-.06-.06-.12-.19-.12-.28v-1.25c0-.09-.05-.22-.12-.28l-1.55-1.57c-.06-.06-.12-.19-.12-.28v-.08c0-.09.07-.17.17-.17h2.24c.09,0,.22.05.28.12l.16.16c.06.06.12.19.12.28v1.02c0,.09.05.22.12.28l1.08,1.08c.06.06.19.12.28.12h1.39c.09,0,.2.07.24.15l.46.98c.04.08.14.15.24.15h.65c.09,0,.17.07.17.17v.75c0,.09.07.17.17.17h1.4c.09,0,.17-.07.17-.17v-.75c0-.09.07-.17.17-.17h1.07c.09,0,.17.07.17.17v.75c0,.09.07.17.17.17h1.43c.09,0,.17-.07.17-.17v-.75c0-.09.07-.17.17-.17h.62c.09,0,.19-.07.23-.15l.38-.97c.03-.08.13-.15.23-.15h1.48c.09,0,.22-.05.28-.12l1.08-1.08c.06-.06.12-.19.12-.28v-1.02c0-.09.05-.22.12-.28l.16-.16c.06-.06.19-.12.28-.12h2.24c.09,0,.17.07.17.17v.08c0,.09-.05.22-.12.28l-1.55,1.57c-.06.06-.12.19-.12.28v1.25c0,.09-.05.22-.12.28l-.03.03c-.06.06-.19.12-.28.12h-1.94c-.09,0-.19.07-.23.15l-.26.78c-.04.08,0,.19.08.24ZM15.11,5.32h-5.81c-.09,0-.17-.08-.17-.17v-2.23c0-.09.08-.17.17-.17h.76c.09,0,.17-.08.17-.17v-1.51c0-.09.08-.17.17-.17h3.53c.09,0,.17.08.17.17v1.51c0,.09.08.17.17.17h.85c.09,0,.17.08.17.17v2.23c0,.09-.08.17-.17.17ZM11.23,3.62c0-.09-.08-.17-.17-.17h-.72c-.09,0-.17.08-.17.17v.72c0,.09.08.17.17.17h.72c.09,0,.17-.08.17-.17v-.72ZM14.27,3.62c0-.09-.08-.17-.17-.17h-.72c-.09,0-.17.08-.17.17v.72c0,.09.08.17.17.17h.72c.09,0,.17-.08.17-.17v-.72Z" style="fill: #5E7ADD; fill-rule: evenodd;"/>
</svg>
