<?xml version="1.0" encoding="UTF-8"?>
<svg id="Layer_1" xmlns="http://www.w3.org/2000/svg" width=".3in" height=".3in" version="1.1" viewBox="0 0 25 24">
  <!-- Generator: Adobe Illustrator 29.8.2, SVG Export Plug-In . SVG Version: 2.1.1 Build 3)  -->
  <path d="M23,15.9l-1.9,3.4c0,0-.2.2-.3.2h-3.8c-.1,0-.2,0-.1-.2l.9-3c0-.1,0-.3,0-.4v-1.7c0-.1,0-.2.2-.2h4.8c.1,0,.2,0,.2.2v1.3c0,.1,0,.3,0,.4ZM22.9,12.9h-3c-.1,0-.2,0-.2-.2v-1.1c0-.1,0-.2.2-.2h3c.1,0,.2,0,.2.2v1.1c0,.1,0,.2-.2.2ZM22.9,10.3h-4.8c-.1,0-.2,0-.2-.2v-1.8c0-.1,0-.3,0-.4l-.9-3.1c0-.1,0-.2.1-.2h3.9c.1,0,.2,0,.3.2l1.8,3.6c0,0,0,.3,0,.4v1.3c0,.1,0,.2-.2.2ZM20.5,2.3c.1,0,.2,0,.2.2v1c0,.1,0,.2-.2.2h-2.4c-.1,0-.2,0-.2-.2v-1c0-.1,0-.2.2-.2h2.4ZM16.2,2.5v1c0,.1,0,.2-.2.2h-2.4c-.1,0-.2,0-.2-.2v-1c0-.1,0-.2.2-.2h2.4c.1,0,.2,0,.2.2ZM4.6,3.7c-.1,0-.2,0-.2-.2v-1c0-.1,0-.2.2-.2h2.4c.1,0,.2,0,.2.2v1c0,.1,0,.2-.2.2h-2.4ZM8.2,5l-.9,3.1c0,.1,0,.3,0,.4v1.8c0,.1,0,.2-.2.2H2.1c-.1,0-.2,0-.2-.2v-1.3c0-.1,0-.3,0-.4l1.8-3.6c0,0,.2-.2.3-.2h3.9c.1,0,.2,0,.1.2ZM2.1,11.4h3c.1,0,.2,0,.2.2v1.1c0,.1,0,.2-.2.2h-3c-.1,0-.2,0-.2-.2v-1.1c0-.1,0-.2.2-.2ZM2.1,14h4.8c.1,0,.2,0,.2.2v1.7c0,.1,0,.3,0,.4l.9,3c0,.1,0,.2-.1.2h-3.8c-.1,0-.2,0-.3-.2l-1.9-3.4c0,0,0-.3,0-.4v-1.3c0-.1,0-.2.2-.2ZM4.6,20.3h2.4c.1,0,.2,0,.2.2v1c0,.1,0,.2-.2.2h-2.4c-.1,0-.2,0-.2-.2v-1c0-.1,0-.2.2-.2ZM18.1,11.6v1.1c0,.1,0,.2-.2.2h-4.5c-.1,0-.2,0-.2-.2v-1.1c0-.1,0-.2.2-.2h4.5c.1,0,.2,0,.2.2ZM11.7,11.6v1.1c0,.1,0,.2-.2.2h-4.5c-.1,0-.2,0-.2-.2v-1.1c0-.1,0-.2.2-.2h4.5c.1,0,.2,0,.2.2ZM9.1,3.7c-.1,0-.2,0-.2-.2v-1c0-.1,0-.2.2-.2h2.4c.1,0,.2,0,.2.2v1c0,.1,0,.2-.2.2h-2.4ZM15.5,5l1,3.1c0,.1,0,.3,0,.4v1.7c0,.1,0,.2-.2.2h-7.6c-.1,0-.2,0-.2-.2v-1.7c0-.1,0-.3,0-.4l1-3.1c0-.1.1-.2.2-.2h5.4c.1,0,.2,0,.2.2h0ZM8.8,14h7.4c.1,0,.2,0,.2.2v1.6c0,.1,0,.3,0,.4l-1,3c0,.1-.1.2-.2.2h-5.3c-.1,0-.2,0-.2-.2l-1-3c0-.1,0-.3,0-.4v-1.6c0-.1,0-.2.2-.2h0ZM9.1,20.3h2.4c.1,0,.2,0,.2.2v1c0,.1,0,.2-.2.2h-2.4c-.1,0-.2,0-.2-.2v-1c0-.1,0-.2.2-.2ZM13.6,20.3h2.4c.1,0,.2,0,.2.2v1c0,.1,0,.2-.2.2h-2.4c-.1,0-.2,0-.2-.2v-1c0-.1,0-.2.2-.2ZM18.1,20.3h2.4c.1,0,.2,0,.2.2v1c0,.1,0,.2-.2.2h-2.4c-.1,0-.2,0-.2-.2v-1c0-.1,0-.2.2-.2Z" fill="#B95D3D" fill-rule="evenodd"/>
</svg>