<?xml version="1.0" encoding="UTF-8"?>
<svg id="Layer_1" data-name="Layer 1" xmlns="http://www.w3.org/2000/svg" width="25" height="24" viewBox="0 0 25 24">
  <path d="M23.21,13.62l-1.7-1.44c-.08-.07-.08-.18,0-.25l1.69-1.4c.08-.07.15-.04.15.07v2.95c0,.11-.07.14-.15.07ZM16.02,11.89c-.08.07-.08.19,0,.27l5.66,5.39c.08.07.1.21.04.3l-.03.05c-.05.09-.18.14-.28.1l-7.03-2.85c-.1-.04-.2.01-.22.12l-1.4,7.34c-.09.11-.12.19-.23.19h-.05c-.11,0-.21-.09-.23-.19l-1.4-7.38c-.02-.11-.12-.16-.22-.12l-7.1,2.76c-.1.04-.22,0-.28-.1l-.03-.05c-.05-.09-.03-.23.05-.3l5.73-5.3c.08-.07.08-.19,0-.27L3.35,6.45c-.08-.07-.1-.21-.04-.3l.03-.05c.05-.09.18-.14.28-.1l7.03,2.85c.1.04.2-.01.22-.12l1.4-7.34c.02-.11.12-.19.23-.19h.05c.11,0,.14.09.23.19l1.4,7.38c.02.11.12.16.22.12l7.1-2.76c.1-.04.22,0,.28.1l.03.05c.05.09.03.23-.05.3l-5.73,5.3ZM18.74,3.59h-2.05c-.11,0-.2-.09-.2-.2v-1.96c0-.11.09-.19.2-.19h.52c.11,0,.26.07.33.14l1.26,1.25c.08.08.14.23.14.33v.43c0,.11-.09.2-.2.2ZM8.26,3.59h-2.05c-.11,0-.2-.09-.2-.2v-.43c0-.11.06-.26.14-.33l1.26-1.25c.08-.08.23-.14.33-.14h.52c.11,0,.2.08.2.19v1.96c0,.11-.09.2-.2.2ZM3.49,12.18l-1.7,1.44c-.08.07-.15.04-.15-.07v-2.95c0-.11.07-.14.15-.07l1.69,1.4c.08.07.08.18,0,.25ZM6.21,20.28h2.05c.11,0,.2.09.2.2v1.96c0,.11-.09.19-.2.19h-.52c-.11,0-.26-.07-.33-.14l-1.26-1.25c-.08-.08-.14-.23-.14-.33v-.43c0-.11.09-.2.2-.2ZM16.69,20.28h2.05c.11,0,.2.09.2.2v.43c0,.11-.06.26-.14.33l-1.26,1.25c-.08.08-.23.14-.33.14h-.52c-.11,0-.2-.08-.2-.19v-1.96c0-.11.09-.2.2-.2Z" style="fill: #B32855; fill-rule: evenodd;"/>
</svg>