<?xml version="1.0" encoding="UTF-8"?>
<svg id="Layer_1" data-name="Layer 1" xmlns="http://www.w3.org/2000/svg" width="24" height="24" viewBox="0 0 24 24">
  <path d="M20.21,2.43h-1.43c-.08,0-.2.05-.26.11l-.15.15c-.06.06-.11.17-.11.26v2.69c0,.08.05.2.11.25l1.62,1.59c.06.06.11.17.11.25v13.43c0,.08-.05.2-.11.26l-1.4,1.42c-.06.06-.17.11-.26.11H5.47c-.08,0-.2-.05-.26-.11l-1.4-1.42c-.06-.06-.11-.17-.11-.26V7.73c0-.08.05-.2.11-.25l1.62-1.59c.06-.06.11-.17.11-.25v-2.69c0-.08-.05-.2-.11-.26l-.15-.15c-.06-.06-.17-.11-.26-.11h-1.43c-.08,0-.15-.07-.15-.15v-1.13c0-.08.07-.15.15-.15h3.22c.08,0,.15.07.15.15v5.09c0,.08-.05.2-.11.25l-1.62,1.59c-.06.06-.11.17-.11.25v11.59c0,.08.05.2.11.26l.56.57c.06.06.17.11.26.11h11.67c.08,0,.2-.05.26-.11l.56-.57c.06-.06.11-.17.11-.26v-11.59c0-.08-.05-.2-.11-.25l-1.62-1.59c-.06-.06-.11-.17-.11-.25V1.15c0-.08.07-.15.15-.15h3.22c.08,0,.15.07.15.15v1.13c0,.08-.07.15-.15.15ZM17.57,12.09v6.92c0,.08-.05.2-.1.26l-.32.33c-.06.06-.17.11-.25.11H6.93c-.08,0-.2-.05-.26-.11l-.33-.34c-.06-.06-.11-.17-.11-.26v-6.92c0-.08.07-.15.15-.15h11.03c.08,0,.15.07.15.15ZM15.2,5.39l-1.2,1.2c-.06.06-.17.11-.26.11h-1.17c-.08,0-.2-.05-.26-.11l-.94-.94c-.06-.06-.11-.17-.11-.26v-1.21c0-.08.07-.15.15-.15h1.14c.08,0,.15.07.15.15v.62c0,.08.05.2.11.26l.1.1c.06.06.17.11.24.11s.19-.05.24-.11l.36-.36c.06-.06.11-.17.11-.26v-1.05c0-.08-.05-.2-.11-.26l-.56-.56c-.06-.06-.17-.11-.26-.11h-1.89c-.08,0-.2.05-.26.11l-.87.87c-.06.06-.11.17-.11.26v1.47c0,.08.05.2.11.26l2.84,2.84c.06.06.11.17.11.26v2.32c0,.08-.07.15-.15.15h-1.13c-.08,0-.15-.07-.15-.15v-1.73c0-.08-.05-.2-.11-.26l-2.84-2.84c-.06-.06-.11-.17-.11-.26v-2.66c0-.08.05-.2.11-.26l1.71-1.71c.06-.06.17-.11.26-.11h3.08c.08,0,.2.05.26.11l1.4,1.4c.06.06.11.17.11.26v2.24c0,.08-.05.2-.11.26Z" style="fill: #42A6C2; fill-rule: evenodd;"/>
</svg>
