<?xml version="1.0" encoding="UTF-8"?>
<svg id="Layer_1" data-name="Layer 1" xmlns="http://www.w3.org/2000/svg" width="23.96" height="21.75" viewBox="0 0 23.96 21.75">
  <path d="M22.79,21.75h-4c-.1,0-.18-.08-.18-.18h0c0-.11.06-.24.13-.31l1.91-1.68c.07-.06.19-.06.27,0l1.91,1.68c.07.06.13.2.13.29h0c0,.11-.08.19-.18.19ZM20.92,2.17c-.07.06-.19.06-.27,0l-1.91-1.68c-.07-.06-.13-.2-.13-.29h0c0-.11.08-.19.18-.19h4c.1,0,.18.08.18.18h0c0,.11-.06.24-.13.31l-1.91,1.68ZM17.6,9.97c-.02.1-.08.24-.13.32l-1.88,2.89c-.05.08-.16.2-.24.26l-2.51,1.88c-.08.06-.22.13-.31.16l-2.3.73c-.09.03-.25.05-.35.05h-3.4c-.1,0-.25-.04-.33-.08l-2.18-1.12c-.09-.04-.21-.14-.27-.22l-1.21-1.41c-.06-.07-.14-.21-.17-.3l-.47-1.62c-.03-.09-.05-.25-.06-.35l-.04-1.12c0-.1.01-.25.04-.35l.51-1.82c.03-.09.07-.09.09,0l.45,1.78c.02.09.08.24.13.33l.72,1.23c.05.08.15.21.22.27l.87.77c.07.06.21.14.3.18l1.5.53c.09.03.25.06.34.06h1.75c.1,0,.25-.03.34-.07l1.51-.67c.09-.04.22-.12.3-.18l1.32-1.09c.08-.06.17-.18.21-.27l.98-2c.04-.09.09-.24.1-.33l.37-2.5c.01-.1.11-.18.2-.18h4.21c.1,0,.16.08.14.17l-.77,4.07ZM12.38,2.17c-.07.06-.19.06-.27,0l-1.91-1.68c-.07-.06-.13-.2-.13-.29h0c0-.11.08-.19.18-.19h4c.1,0,.18.08.18.18h0c0,.11-.06.24-.13.31l-1.91,1.68ZM10.75,5.91l.37,2.5c.01.1.06.25.1.33l.37.75c.04.09.06.24.03.33l-.09.34c-.03.09-.11.22-.19.28l-1.17.88c-.08.06-.22.14-.31.17l-1.41.57c-.09.04-.21,0-.26-.08l-1.1-1.69c-.05-.08-.11-.23-.13-.32l-.77-4.07c-.02-.1.05-.17.14-.17h4.21c.1,0,.19.08.2.18ZM3.84,2.17c-.07.06-.19.06-.27,0L1.66.49c-.07-.06-.13-.2-.13-.29h0c0-.11.08-.19.18-.19h4c.1,0,.18.08.18.18h0c0,.11-.06.24-.13.31l-1.91,1.68ZM3.58,19.58c.07-.06.19-.06.27,0l1.91,1.68c.07.06.13.2.13.29h0c0,.11-.08.19-.18.19H1.71c-.1,0-.18-.08-.18-.18h0c0-.11.06-.24.13-.31l1.91-1.68ZM12.12,19.58c.07-.06.19-.06.27,0l1.91,1.68c.07.06.13.2.13.29h0c0,.11-.08.19-.18.19h-4c-.1,0-.18-.08-.18-.18h0c0-.11.06-.24.13-.31l1.91-1.68ZM13.96,16.09c-.09-.03-.11-.1-.03-.16l2.36-1.83c.08-.06.18-.18.23-.26l.42-.67c.05-.08.17-.15.27-.15h.41c.1,0,.25-.03.34-.06l1.5-.53c.09-.03.23-.11.3-.18l.87-.77c.07-.06.17-.19.22-.27l.72-1.23c.05-.08.11-.23.13-.33l.45-1.78c.02-.09.06-.1.09,0l.51,1.82c.03.09.05.25.04.35l-.04,1.12c0,.1-.03.25-.06.35l-.47,1.62c-.03.09-.1.23-.17.3l-1.21,1.41c-.06.07-.19.17-.27.22l-2.18,1.12c-.09.04-.24.08-.33.08h-3.4c-.1,0-.25-.02-.35-.05l-.38-.12Z" style="fill: #F0678F; fill-rule: evenodd;"/>
</svg>
