<?xml version="1.0" encoding="UTF-8"?>
<svg id="Layer_1" data-name="Layer 1" xmlns="http://www.w3.org/2000/svg" width="25" height="24" viewBox="0 0 25 24">
  <path d="M22.25,23.05h-6.56c-.09,0-.17-.07-.17-.17v-3.18c0-.09-.04-.21-.1-.26-.05-.05-.15-.15-.21-.21l-1.25-1.25c-.06-.06-.19-.12-.28-.12h-2.52c-.09,0-.22.05-.28.12l-1.44,1.44c-.06.06-.12.19-.12.28v3.18c0,.09-.07.17-.17.17H2.5c-.09,0-.17-.07-.17-.17v-1.16c0-.09.07-.17.17-.17h4.82c.09,0,.17-.07.17-.17v-2.56c0-.09.05-.22.12-.28l2.41-2.39c.06-.06.19-.12.28-.12h4.23c.09,0,.22.05.28.12l2.43,2.43c.06.06.12.19.12.28v2.52c0,.09.07.17.17.17h4.74c.09,0,.17.07.17.17v1.16c0,.09-.07.17-.17.17ZM22.22,16.01l-1.47.93c-.08.05-.19.03-.25-.03l-.41-.45c-.06-.07-.06-.18,0-.24l2.15-2.18c.06-.06.12-.04.12.05v1.67c0,.09-.06.21-.14.25ZM17.9,13.85c-.06.07-.17.07-.24,0l-.4-.37c-.07-.06-.1-.18-.06-.27l3.5-9.29c.03-.09.13-.16.22-.16h1.26c.09,0,.17.07.17.17v5.08c0,.09-.05.22-.11.29l-4.33,4.54ZM18,1.4l-3.75,10.91c-.03.09-.13.16-.22.16h-.16c-.09,0-.17-.07-.17-.17V1c0-.09.07-.17.17-.17h4.02c.09,0,.17.07.16.17v.08c0,.09-.03.24-.06.32ZM10.42,12.5l-2.65-8.13c-.03-.09.02-.16.11-.16h2.42c.09,0,.17.07.17.17v8.11c0,.09-.02.09-.05,0ZM7.15,14.37c-.06.06-.17.06-.23,0l-4.49-4.63c-.06-.07-.12-.19-.12-.28v-5.02c0-.09.07-.17.17-.17h1.7c.09,0,.19.07.22.16l3.16,9.34c.03.09,0,.21-.06.27l-.33.33ZM2.42,14.23l2.26,2.22c.07.06.06.16,0,.22l-.5.43c-.07.06-.19.08-.28.05l-1.44-.59c-.08-.03-.15-.14-.15-.23v-2.05c0-.09.05-.11.12-.05ZM11.42,19.28c.06-.06.19-.12.28-.12h1.44c.09,0,.22.05.28.12l.68.68c.06.06.12.19.12.28v2.64c0,.09-.07.17-.17.17h-3.26c-.09,0-.17-.07-.17-.17v-2.64c0-.09.05-.22.12-.28l.68-.68Z" style="fill: #F0678F; fill-rule: evenodd;"/>
</svg>
