<?xml version="1.0" encoding="UTF-8"?>
<svg id="Layer_1" data-name="Layer 1" xmlns="http://www.w3.org/2000/svg" width="25" height="24" viewBox="0 0 25 24">
  <path d="M12.5,24c-5.75,0-10.4-5.54-10.4-12.37C2.1,7.37,3.91,3.61,6.67,1.38c-1.65,2.06-2.69,4.99-2.69,8.25,0,6.24,3.79,11.29,8.47,11.29s8.47-5.06,8.47-11.29c0-3.34-1.09-6.35-2.82-8.41,2.88,2.2,4.79,6.04,4.79,10.41,0,6.83-4.66,12.37-10.4,12.37ZM12.49,18.73c-3.78,0-6.85-4.15-6.85-9.27S8.7.19,12.49.19s6.85,4.15,6.85,9.27-3.07,9.27-6.85,9.27ZM12.37,1.22c-2.62,0-4.74,2.64-4.74,5.9s2.12,5.9,4.74,5.9,4.74-2.64,4.74-5.9S14.99,1.22,12.37,1.22ZM12.38,11.42c-1.79,0-3.24-1.93-3.24-4.31s1.45-4.31,3.24-4.31,3.24,1.93,3.24,4.31-1.45,4.31-3.24,4.31Z" style="fill: #F0678F; fill-rule: evenodd;"/>
</svg>
