<?xml version="1.0" encoding="UTF-8"?>
<svg id="Layer_1" data-name="Layer 1" xmlns="http://www.w3.org/2000/svg" width="24" height="24" viewBox="0 0 24 24">
  <path d="M22.31,3.96c.04-.09.07-.24.07-.33V.86c0-.1-.08-.17-.17-.17h-2.4c-.1,0-.2.07-.23.16l-.79,2.24c-.03.09-.07.09-.09,0l-.42-2.23c-.02-.09-.11-.17-.21-.17h-4.05c-.1,0-.24.04-.32.09l-2.42,1.46c-.08.05-.23.09-.32.09h-2.76c-.1,0-.24-.04-.33-.09l-1.86-1.04c-.08-.05-.23-.09-.33-.09H1.79c-.1,0-.17.08-.17.17v4.67c0,.1.04.24.09.32l.86,1.43c.05.08.09.23.09.32v3.95c0,.1.08.18.17.18l1.27.06c.1,0,.12.06.05.13l-1.37,1.37c-.07.07-.12.2-.12.3v.58c0,.1-.02.25-.05.34l-.93,3.04c-.03.09-.05.24-.05.34v3.45c0,.1.08.17.17.17h3.28c.1,0,.25.02.34.05l3.21.86c.09.02.25.05.34.05h9.62c.1,0,.19-.08.22-.17l.56-2.13c.02-.09.08-.1.12-.01l1.07,2.16c.04.09.16.16.25.16h1.31c.1,0,.17-.08.17-.17v-1.47c0-.1-.02-.25-.04-.34l-.78-2.95c-.02-.09-.04-.25-.04-.34V6.22c0-.1.03-.25.07-.33l.82-1.93Z" style="fill: #94EF9E; fill-rule: evenodd;"/>
  <path d="M19.85,16.16l-1.68,1.68c-.07.07-.18.07-.25,0l-1.68-1.68c-.07-.07-.07-.18,0-.25l1.68-1.68c.07-.07.18-.07.25,0l1.68,1.68c.07.07.07.18,0,.25ZM15.8,15.48c-.07.07-.18.07-.25,0l-1.68-1.68c-.07-.07-.07-.18,0-.25l1.68-1.68c.07-.07.18-.07.25,0l1.68,1.68c.07.07.07.18,0,.25l-1.68,1.68ZM15.07,16.21l-1.68,1.68c-.07.07-.18.07-.25,0l-1.68-1.68c-.07-.07-.07-.18,0-.25l1.68-1.68c.07-.07.18-.07.25,0l1.68,1.68c.07.07.07.18,0,.25ZM15.51,16.65c.07-.07.18-.07.25,0l1.68,1.68c.07.07.07.18,0,.25l-1.68,1.68c-.07.07-.18.07-.25,0l-1.68-1.68c-.07-.07-.07-.18,0-.25l1.68-1.68Z" style="fill: #000; fill-rule: evenodd;"/>
  <path d="M19.59,5.38l-2.09,1.91c-.07.06-.18.06-.25-.01l-1.72-1.89c-.06-.07-.04-.13.06-.13h3.95c.1,0,.12.05.05.12ZM12.21,7.18c-.06.07-.17.08-.24,0l-1.89-1.81c-.07-.07-.05-.12.05-.12h3.65c.1,0,.12.06.06.13l-1.62,1.79ZM19.13,9.63v.43c0,.1-.08.17-.17.17h-9.22c-.1,0-.17-.08-.17-.17v-.43c0-.1.08-.17.17-.17h9.22c.1,0,.17.08.17.17ZM6.28,7.18c-.06.07-.17.08-.24,0l-1.89-1.81c-.07-.07-.05-.12.05-.12h4.01c.1,0,.12.06.06.13l-1.98,1.79ZM5.51,17.88h2.34c.1,0,.25.02.34.04l2.33.62c.09.02.25.04.34.04h7.89c.1,0,.17.08.17.17v.51c0,.1-.08.17-.17.17h-8c-.1,0-.25-.02-.34-.04l-2.33-.62c-.09-.02-.25-.04-.34-.04h-2.23c-.1,0-.17-.08-.17-.17v-.51c0-.1.08-.17.17-.17ZM10.18,11.99l3.18.79c.09.02.25.04.34.04h5.26c.1,0,.17.08.17.17v.51c0,.1-.08.17-.17.17h-5.36c-.1,0-.25-.02-.34-.04l-3.18-.79c-.09-.02-.25-.04-.34-.04h-3.7c-.1,0-.17-.08-.17-.17v-.51c0-.1.08-.17.17-.17h3.8c.1,0,.25.02.34.04ZM12.61,15.08c.1,0,.17.08.17.17v.51c0,.1-.08.17-.17.17h-6.68c-.1,0-.17-.08-.17-.17v-.51c0-.1.08-.17.17-.17h6.68ZM5.66,10.06v-.43c0-.1.08-.17.17-.17h1.8c.1,0,.17.08.17.17v.43c0,.1-.08.17-.17.17h-1.8c-.1,0-.17-.08-.17-.17ZM14.06,16.93v-.51c0-.1.08-.17.17-.17h4.73c.1,0,.17.08.17.17v.51c0,.1-.08.17-.17.17h-4.73c-.1,0-.17-.08-.17-.17Z" style="fill: #000; fill-rule: evenodd;"/>
</svg>