<?xml version="1.0" encoding="UTF-8"?>
<svg id="Layer_2" data-name="Layer 2" xmlns="http://www.w3.org/2000/svg" width="25" height="24" viewBox="0 0 25 24">
  <path d="M22.9,9.39v.62l-13.36,4.52s2.27.21,3.7,1.03c1.8.82,2.67,2.83,2.67,3.49v3.08c0,.57.57.82.82.82h1.85c.52,0,.62-.15.62-.62v-.82s-.3-.62-.62-.62c.06,0-1.44,0-1.44,0v.41c0,.47.78.41.82.41.42,0,.41,0,.41.21v.41c0,.21.11.21-.21.21.06,0-.47,0-1.23,0-.4,0-.62-.41-.62-1.03v-1.44h3.08c.62,0,.62.53.62.82v2.06c0,.62-.16.82-.82.82h-3.49c-.36,0-.62-.05-.62-.62v-3.08c0-1.43-1.94-3.14-3.49-4.11-1.19-.6-3.55-.82-4.73-.82h-3.7s.12-1.84.21-3.08c.46-.88,1.51-3.85,3.91-6.17C10.3,3.74,16.53,1.53,18.99.76c2.47-.4,3.91-.41,3.91-.41l-.82.82s-1.26.18-3.29.62c-3.38,1.38-7.54,2.99-10.07,4.73-1.75,1.76-2.52,3.2-3.29,4.32-.4,1.49-.62,2.47-.62,2.47h2.47c1.19,0,2.11-.27,2.47-.62,1.52-.2,11.92-3.29,11.92-3.29h1.23ZM21.05,8.78s-10.98,3.44-12.75,3.7c-.76.45-2.47.21-2.47.21,0,0,.35-1.32,1.03-2.88,1.8-2.38,4.48-3.91,7.2-5.34,3.51-1.25,7.4-2.67,7.4-2.67,0,0-2.04,2.06-2.47,3.08-.05,1.03-.09,2.47,0,2.67.73.41,2.06,1.23,2.06,1.23ZM1.21,7.97l2.16-.42-.99,2.32-1.17-1.9ZM1.73,12.96l-1.46-.95s1.94-1.22,1.88-1.19c-.06.03-.42,2.14-.42,2.14ZM1.73,15.15H.27l1.46-1.24v1.24ZM2.75,18.03h6.37c.96,0,1.03.88,1.03,1.03v3.49h2.88v1.23H2.55v-1.23h4.73v-.82l-1.64-2.06h-.21l-1.03,1.23h-.21l-.62-1.23h-.21l-.82,1.03h-.21v-2.26c0-.12.24-.41.41-.41ZM14.06,15.15c-.67-.57-2.26-.82-2.26-.82l10.28-3.29s-1.22,1.76-2.26,4.11c-.67,2.72-1.23,4.11-1.23,4.11h-2.06s.29-.4-.21-1.44c-.12-.67-1.22-1.73-2.26-2.67Z" style="fill: #BD412B; fill-rule: evenodd;"/>
</svg>