<?xml version="1.0" encoding="UTF-8"?>
<svg id="Layer_1" data-name="Layer 1" xmlns="http://www.w3.org/2000/svg" width="25" height="24" viewBox="0 0 25 24">
  <path d="M17.72,11.97c.14-.51.16-1.4.16-2.69,0-1.07-.03-.9-.05-1.41-.04-.53-.05-.71-.19-1.07,1.91.24,4.39.03,4.39.03,0,.45-.72,2.1-1.5,3.15-.62.76-1.55,1.33-2.8,2ZM17.82,2.38l.99,2.96-2.96-.25,1.98-2.72ZM16.69,6.73c.15.53.15,1.51.15,2.32,0,1.45-.09,2.91-.22,3.46-.54.24-.89.41-1.96.85-.87.34-1.65.58-2.46.93.13-1.11.37-3.33.42-4.74.04-.95-.23-2.74-.39-3.65,1.59.35,3.11.69,4.47.84ZM8.19,16.71l3.46-.99-.99,2.96-2.47-1.98ZM10.32,15.08c-.61.25-1.22.41-1.88.58-.74.18-1.21.25-1.97.43-.67.15-1.32.25-1.84.29,1.05-.84,1.58-3.31,1.58-6.24s-.55-5.43-1.61-6.26c1.05-.09,1.12-.02,1.85-.02,1.5.42,2.82,1.2,4.54,1.72.15.73.12,1.95.22,3.74.02.43.02.86,0,1.29-.15,2.27-.6,3.81-.89,4.46ZM10.17.38l.99,3.73-3.46-1.24L10.17.38ZM2.85,16.21c-1.43,0-2.59-2.6-2.59-6.08S1.42,3.61,2.85,3.61s2.37,3.04,2.37,6.52-.94,6.08-2.37,6.08ZM2.76,7.32c-.32,0-.99,1.33-.99,2.47,0,1.59.66,2.47.99,2.47.77,0,.99-.88.99-2.47,0-1.14-.22-2.47-.99-2.47ZM7.94,23.62l-2.96-1.73,2.96-1.73v3.46ZM19.06,12.01v3.21s-2.76-1.24-2.96-1.24c.24,0,2.96-1.98,2.96-1.98ZM18.32,22.39s-2.66.88-2.96.74c.14.3.49-3.71.49-3.71l2.47,2.96ZM22.76,19.92l-.99-3.46,2.96.99-1.98,2.47Z" style="fill: #BD412B; fill-rule: evenodd;"/>
</svg>