<?xml version="1.0" encoding="UTF-8"?>
<svg id="Layer_1" data-name="Layer 1" xmlns="http://www.w3.org/2000/svg" width="25" height="24" viewBox="0 0 25 24">
  <path d="M20.27,8.88l3.43,1.02-2.38,2.96c.02.27-.01.59,0,.68.04.38.03.26.03.32l2.14,1.75-3.35,3.14c-1.57,3.04-4.51,4.89-7.88,4.89s-6.3-1.86-7.88-4.89l-3.73-3.14,2.52-1.75c0-.06.02-.11.02-.36,0-.09-.01-.36,0-.64l-2.57-2.96,3.62-1.02c.26-.53.56-1.04.89-1.51l-1.53-4.03,4.68,1.21c.52-.28,1.05-.51,1.62-.68L12.27.36l2.34,3.51c.56.17,1.1.4,1.62.68l4.3-1.21-1.15,4.03c.34.47.63.98.89,1.51ZM17.36,15.18c0-3.55-2.18-6.76-5.09-6.76s-5.26,3.22-5.26,6.76c0,3.93,2.34,6.76,5.26,6.76s5.09-2.84,5.09-6.76ZM19.26,4.4l-3.53,1.04c-.41-.21-.84-.38-1.28-.52l-2.19-3.48-2.19,3.48c-.44.13-.87.31-1.28.52l-3.91-1.04,1.25,3.21c-.43.52-.8,1.1-1.1,1.72l-3.1.78,2.17,2.32c-.05.41-.06.82-.06,1.06,0,.48,0,.76.02,1.04l-1.71,1.07,2.55,2.15c1.3,2.84,3.91,4.83,6.95,5-3.54-.25-6.33-3.7-6.33-7.91s3.01-8.12,6.74-8.12,6.57,3.74,6.57,8.12-2.62,7.66-6.16,7.91c3.04-.17,5.65-2.15,6.95-5l2.17-2.15-1.33-1.07c.02-.28,0-.56,0-1.03,0-.23.01-.66-.04-1.06l1.79-2.32-2.72-.78c-.31-.62-.68-1.2-1.1-1.72l.87-3.21ZM12.27,12.64c2.22,0,3.83,2.13,3.83,4.52s-1.61,4.14-3.83,4.14-3.99-1.75-3.99-4.14,1.78-4.52,3.99-4.52ZM12.27,20.04c1.52,0,2.56-1.18,2.56-2.87s-1.04-3.26-2.56-3.26-2.73,1.56-2.73,3.26,1.21,2.87,2.73,2.87Z" style="fill: #BD412B; fill-rule: evenodd;"/>
</svg>