<?xml version="1.0" encoding="UTF-8"?>
<svg id="Layer_1" xmlns="http://www.w3.org/2000/svg" width=".3in" height=".3in" version="1.1" viewBox="0 0 25 24">
  <!-- Generator: Adobe Illustrator 29.8.2, SVG Export Plug-In . SVG Version: 2.1.1 Build 3)  -->
  <path d="M24.8,10.6l-1.4,1.4c0,0-.2,0-.3,0l-3.3-3.4c0,0,0-.2,0-.3l.8-.8c0,0,0-.2,0-.3l-2.5-2.5c0,0,0-.2,0-.3l.2-.2c0,0,.2,0,.3,0l6.1,6.1c0,0,0,.2,0,.3h0ZM18.4,7.5l-6.5,6.5c0,0-.2,0-.3,0l-6.2-6.2c0,0,0-.2,0-.3L11.9,1c0,0,.2,0,.3,0l6.2,6.2c0,0,0,.2,0,.3ZM3.7,7.5c0,0,0,.2,0,.3l1.4,1.4c0,0,0,.2,0,.3l-2.5,2.5c0,0-.2,0-.3,0L.2,10c0,0,0-.2,0-.3l5.3-5.3c0,0,.2,0,.3,0l.3.3c0,0,0,.2,0,.3,0,0-2.4,2.5-2.4,2.5ZM6,10.4c0,0,.2,0,.3,0l5.3,5.3c0,0,.2,0,.3,0l1.3-1.3c0,0,.2,0,.3,0l.7.7c0,0,0,.2,0,.3l-5.3,5.3c0,0-.2,0-.3,0l-6.3-6.4c0,0,0-.2,0-.3l3.6-3.6h0ZM12.6,19c0,0,.2,0,.3,0l1.7,1.7c0,0,0,.2,0,.3l-1.9,1.9c0,0-.2,0-.3,0l-1.7-1.7c0,0,0-.2,0-.3l1.9-1.9ZM13.9,17.7l2.2-2.2c0,0,0-.2,0-.3l-1.6-1.6c0,0,0-.2,0-.3l3.7-3.7c0,0,.2,0,.3,0l2.2,2.2h0l1.5,1.5h0l.5.6c0,0,0,.2,0,.3l-6.2,6.2c0,0-.2,0-.3,0l-2.3-2.3c0,0,0-.2,0-.3h0Z" fill="#95D4C6" fill-rule="evenodd"/>
</svg>