<?xml version="1.0" standalone="no"?>
<!DOCTYPE svg PUBLIC "-//W3C//DTD SVG 20010904//EN"
 "http://www.w3.org/TR/2001/REC-SVG-20010904/DTD/svg10.dtd">
<svg version="1.0" xmlns="http://www.w3.org/2000/svg"
 width="300.000000pt" height="300.000000pt" viewBox="0 0 300.000000 300.000000"
 preserveAspectRatio="xMidYMid meet">

<g transform="translate(0.000000,300.000000) scale(0.100000,-0.100000)"
fill="#b22a23" stroke="none">
<path d="M1385 2984 c-373 -38 -686 -182 -943 -435 -219 -216 -373 -515 -423
-825 -19 -115 -16 -358 5 -479 80 -448 368 -844 770 -1056 125 -66 197 -94
331 -129 762 -197 1547 226 1795 967 166 499 64 1030 -278 1435 -214 255 -548
445 -881 502 -95 16 -304 27 -376 20z m167 -1248 l883 -583 -3 -38 c-9 -113
-114 -399 -159 -432 -11 -9 -58 -13 -144 -13 l-127 0 -729 771 c-400 424 -729
776 -730 782 -2 11 103 97 118 97 4 0 405 -263 891 -584z m680 462 c19 -17 28
-34 24 -45 -2 -10 -12 -76 -21 -148 -22 -176 -22 -175 -45 -175 -33 0 -476
333 -465 350 3 4 22 11 42 14 78 14 230 55 273 74 l45 20 59 -32 c32 -17 72
-43 88 -58z m-1354 -1102 c162 -148 332 -318 332 -333 0 -5 -24 -15 -52 -22
-29 -8 -99 -31 -155 -52 -118 -44 -177 -55 -215 -40 -15 6 -61 36 -102 68 -41
32 -86 66 -101 76 -19 14 -24 24 -20 40 10 34 158 397 163 397 2 0 70 -60 150
-134z"/>
</g>
</svg>
